'##::::'##::::'###::::'##::: ##:'##::::'##:'########::'####:'########:
 ###::'###:::'## ##::: ###:: ##: ##:::: ##: ##.... ##:. ##:: ##.....::
 ####'####::'##:. ##:: ####: ##: ##:::: ##: ##:::: ##:: ##:: ##:::::::
 ## ### ##:'##:::. ##: ## ## ##: ##:::: ##: ########::: ##:: ######:::
 ##. #: ##: #########: ##. ####: ##:::: ##: ##.. ##:::: ##:: ##...::::
 ##:.:: ##: ##.... ##: ##:. ###: ##:::: ##: ##::. ##::: ##:: ##:::::::
 ##:::: ##: ##:::: ##: ##::. ##:. #######:: ##:::. ##:'####: ########:
..:::::..::..:::::..::..::::..:::.......:::..:::::..::....::........::


Complete name                    : SuckSeed.2010-DVDRip.x264.AAC-SeeingMole.mp4
Format                           : MPEG-4
Format profile                   : Base Media
Codec ID                         : isom
File size                        : 1.08 GiB
Duration                         : 2h 10mn
Overall bit rate                 : 1 193 Kbps
Encoded date                     : UTC 2011-07-02 04:22:27
Tagged date                      : UTC 2011-07-02 04:22:27

Video
ID                               : 1
Format                           : AVC
Format/Info                      : Advanced Video Codec
Format profile                   : High@L3.0
Format settings, CABAC           : Yes
Format settings, ReFrames        : 5 frames
Codec ID                         : avc1
Codec ID/Info                    : Advanced Video Coding
Duration                         : 2h 10mn
Bit rate mode                    : Variable
Bit rate                         : 1 005 Kbps
Maximum bit rate                 : 6 805 Kbps
Width                            : 720 pixels
Height                           : 400 pixels
Display aspect ratio             : 16:9
Frame rate mode                  : Constant
Frame rate                       : 25.000 fps
Color space                      : YUV
Chroma subsampling               : 4:2:0
Bit depth                        : 8 bits
Scan type                        : Progressive
Bits/(Pixel*Frame)               : 0.140
Stream size                      : 907 MiB (82%)
Title                            : Imported with GPAC 0.4.6-DEV (internal rev. 8)
Writing library                  : x264 core 115 r2008 4c552d8
Encoding settings                : cabac=1 / ref=5 / deblock=1:0:0 / 
Encoded date                     : UTC 2011-07-02 04:22:27
Tagged date                      : UTC 2011-07-02 04:23:19

Audio
ID                               : 2
Format                           : AAC
Format/Info                      : Advanced Audio Codec
Format version                   : Version 4
Format profile                   : LC
Format settings, SBR             : Yes
Format settings, PS              : No
Codec ID                         : 40
Duration                         : 2h 10mn
Bit rate mode                    : Variable
Bit rate                         : 215 Kbps
Maximum bit rate                 : 261 Kbps
Channel(s)                       : 6 channels
Channel positions                : Front: L C R, Side: L R, LFE
Sampling rate                    : 48.0 KHz
Stream size                      : 200 MiB (18%)
Encoded date                     : UTC 2011-07-02 04:23:16
Tagged date                      : UTC 2011-07-02 04:23:19

Subtitle Link: http://thepiratebay.org/torrent/6639442/

Seed and Enjoy!

-manurie